{
	"asset": {
		"generator": "Blocks 2.0.1_OVR_RC5",
		"version": "1.1",
		"copyright": "Unknown"
	},
	"buffers": {
		"model": {
			"byteLength": 67328,
			"type": "arraybuffer",
			"uri": "model.bin"
		}
	},
	"accessors": {
		"accessor_position_m0-PolyGem25_-46228": {
			"bufferView": "vec3BufferView",
			"byteOffset": 0,
			"byteStride": 12,
			"componentType": 5126,
			"count": 24,
			"max": [ -0.01181382, 1.299226, -0.7277868 ],
			"min": [ -0.1668201, 1.141811, -0.9026797 ],
			"type": "VEC3"
		 },
		"accessor_normal_m0-PolyGem25_-46228": {
			"bufferView": "vec3BufferView",
			"byteOffset": 288,
			"byteStride": 12,
			"componentType": 5126,
			"count": 24,
			"max": [ 0.7659822, 0.9997822, 0.7661536 ],
			"min": [ -0.7659822, -0.9997822, -0.7661536 ],
			"type": "VEC3"
		 },
		"accessor_color_m0-PolyGem25_-46228": {
			"bufferView": "vec4BufferView",
			"byteOffset": 0,
			"byteStride": 16,
			"componentType": 5126,
			"count": 24,
			"max": [ 1, 1, 1, 1 ],
			"min": [ 1, 1, 1, 1 ],
			"type": "VEC4"
		 },
		"accessor_indices_0_m0-PolyGem25_-46228": {
			"bufferView": "ushortBufferView",
			"byteOffset": 0,
			"byteStride": 0,
			"componentType": 5123,
			"count": 36,
			"max": [ 23 ],
			"min": [ 0 ],
			"type": "SCALAR"
		 },
		"accessor_position_m1-PolyGlass24_-51212": {
			"bufferView": "vec3BufferView",
			"byteOffset": 576,
			"byteStride": 12,
			"componentType": 5126,
			"count": 72,
			"max": [ 0.1651831, 1.287015, -0.5860268 ],
			"min": [ 0.06449785, 1.145797, -0.6982435 ],
			"type": "VEC3"
		 },
		"accessor_normal_m1-PolyGlass24_-51212": {
			"bufferView": "vec3BufferView",
			"byteOffset": 1440,
			"byteStride": 12,
			"componentType": 5126,
			"count": 72,
			"max": [ 0.8392082, 0.9789385, 0.6762606 ],
			"min": [ -0.8392091, -0.978938, -0.6762592 ],
			"type": "VEC3"
		 },
		"accessor_color_m1-PolyGlass24_-51212": {
			"bufferView": "vec4BufferView",
			"byteOffset": 384,
			"byteStride": 16,
			"componentType": 5126,
			"count": 72,
			"max": [ 0.8392157, 0.8392157, 0.8392157, 0.2509804 ],
			"min": [ 0.8392157, 0.8392157, 0.8392157, 0.2509804 ],
			"type": "VEC4"
		 },
		"accessor_indices_0_m1-PolyGlass24_-51212": {
			"bufferView": "ushortBufferView",
			"byteOffset": 72,
			"byteStride": 0,
			"componentType": 5123,
			"count": 132,
			"max": [ 71 ],
			"min": [ 0 ],
			"type": "SCALAR"
		 },
		"accessor_position_m2-PolyPaper23_-53410": {
			"bufferView": "vec3BufferView",
			"byteOffset": 2304,
			"byteStride": 12,
			"componentType": 5126,
			"count": 1466,
			"max": [ 0.198633, 1.449173, -0.4965879 ],
			"min": [ -0.2837033, 1.069534, -0.97945 ],
			"type": "VEC3"
		 },
		"accessor_normal_m2-PolyPaper23_-53410": {
			"bufferView": "vec3BufferView",
			"byteOffset": 19896,
			"byteStride": 12,
			"componentType": 5126,
			"count": 1466,
			"max": [ 0.9985601, 0.9999637, 0.9996671 ],
			"min": [ -0.9985601, -0.9999638, -0.9996671 ],
			"type": "VEC3"
		 },
		"accessor_color_m2-PolyPaper23_-53410": {
			"bufferView": "vec4BufferView",
			"byteOffset": 1536,
			"byteStride": 16,
			"componentType": 5126,
			"count": 1466,
			"max": [ 1, 1, 1, 1 ],
			"min": [ 0.1019608, 0.1019608, 0.1019608, 1 ],
			"type": "VEC4"
		 },
		"accessor_indices_0_m2-PolyPaper23_-53410": {
			"bufferView": "ushortBufferView",
			"byteOffset": 336,
			"byteStride": 0,
			"componentType": 5123,
			"count": 2256,
			"max": [ 1465 ],
			"min": [ 0 ],
			"type": "SCALAR"
		 }
	},
	"bufferViews": {
		"ushortBufferView": {
			"buffer": "model",
			"byteLength": 4848,
			"byteOffset": 0,
			"target": 34963
		},
		"vec3BufferView": {
			"buffer": "model",
			"byteLength": 37488,
			"byteOffset": 4848,
			"target": 34962
		},
		"vec4BufferView": {
			"buffer": "model",
			"byteLength": 24992,
			"byteOffset": 42336,
			"target": 34962
		}
	},
	"meshes": {
		"mesh_m0-PolyGem25_-46228": {
			"name": "mesh_m0-PolyGem25_-46228",
			"primitives": [
				{
					"attributes": {
						"POSITION": "accessor_position_m0-PolyGem25_-46228",
						"NORMAL": "accessor_normal_m0-PolyGem25_-46228",
						"COLOR": "accessor_color_m0-PolyGem25_-46228"
					},
					"indices": "accessor_indices_0_m0-PolyGem25_-46228",
					"material": "material_mat25",
					"mode": 4
				}
			]
		},
		"mesh_m1-PolyGlass24_-51212": {
			"name": "mesh_m1-PolyGlass24_-51212",
			"primitives": [
				{
					"attributes": {
						"POSITION": "accessor_position_m1-PolyGlass24_-51212",
						"NORMAL": "accessor_normal_m1-PolyGlass24_-51212",
						"COLOR": "accessor_color_m1-PolyGlass24_-51212"
					},
					"indices": "accessor_indices_0_m1-PolyGlass24_-51212",
					"material": "material_mat24",
					"mode": 4
				}
			]
		},
		"mesh_m2-PolyPaper23_-53410": {
			"name": "mesh_m2-PolyPaper23_-53410",
			"primitives": [
				{
					"attributes": {
						"POSITION": "accessor_position_m2-PolyPaper23_-53410",
						"NORMAL": "accessor_normal_m2-PolyPaper23_-53410",
						"COLOR": "accessor_color_m2-PolyPaper23_-53410"
					},
					"indices": "accessor_indices_0_m2-PolyPaper23_-53410",
					"material": "material_mat23",
					"mode": 4
				}
			]
		}
	},
	"shaders": {
		"vertex_mat25": {
			"type": 35633,
			"uri": "https://vr.google.com/shaders/w/gemVS.glsl"
		},
		"fragment_mat25": {
			"type": 35632,
			"uri": "https://vr.google.com/shaders/w/gemFS.glsl"
		},
		"vertex_mat24": {
			"type": 35633,
			"uri": "https://vr.google.com/shaders/w/glassVS.glsl"
		},
		"fragment_mat24": {
			"type": 35632,
			"uri": "https://vr.google.com/shaders/w/glassFS.glsl"
		},
		"vertex_mat23": {
			"type": 35633,
			"uri": "https://vr.google.com/shaders/w/vs.glsl"
		},
		"fragment_mat23": {
			"type": 35632,
			"uri": "https://vr.google.com/shaders/w/fs.glsl"
		}
	},
	"programs": {
		"program_mat25": {
			"attributes": [
				"a_position",
				"a_normal",
				"a_color"				
			],
			"vertexShader": "vertex_mat25",
			"fragmentShader": "fragment_mat25"
		},
		"program_mat24": {
			"attributes": [
				"a_position",
				"a_normal",
				"a_color"				
			],
			"vertexShader": "vertex_mat24",
			"fragmentShader": "fragment_mat24"
		},
		"program_mat23": {
			"attributes": [
				"a_position",
				"a_normal",
				"a_color"				
			],
			"vertexShader": "vertex_mat23",
			"fragmentShader": "fragment_mat23"
		}
	},
	"techniques": {
		"technique_mat25": {
			"program": "program_mat25",
			"extras": {"gvrss" : "https://vr.google.com/shaders/w/gvrss/gem.json"},
			"parameters": {
				"position": {
					"type": 35665,
					"semantic": "POSITION"
				},
				"normal": {
					"type": 35665,
					"semantic": "NORMAL"
				},
				"color": {
					"type": 35666,
					"semantic": "COLOR"
				},
				"modelViewMatrix": {
					"type": 35676,
					"semantic": "MODELVIEW"
				},
				"projectionMatrix": {
					"type": 35676,
					"semantic": "PROJECTION"
				},
				"normalMatrix": {
					"type": 35675,
					"semantic": "MODELVIEWINVERSETRANSPOSE"
				},
				"color": {
					"type": 35666
				},
				"roughness": {
					"type": 5126
				},
				"metallic": {
					"type": 5126
				},
				"gem": {
					"type": 35678
				},
				"light0Pos": {
					"type": 35666
				},
				"light0Color": {
					"type": 35666
				},
				"light1Pos": {
					"type": 35666
				},
				"light1Color": {
					"type": 35666
				}				
			},
			"attributes": {
				"a_position": "position",
				"a_normal": "normal",
				"a_color": "color"				
			},
			"uniforms": {
				"u_modelViewMatrix": "modelViewMatrix",
				"u_projectionMatrix": "projectionMatrix",
				"u_normalMatrix": "normalMatrix",
				"u_color": "color",
				"u_roughness": "roughness",
				"u_metallic": "metallic",
				"u_gem": "gem",
				"u_light0Pos": "light0Pos",
				"u_light0Color": "light0Color",
				"u_light1Pos": "light1Pos",
				"u_light1Color": "light1Color"				
			},
			"states": {
				"enable": [
					2929,
					2884
				],
				"functions": {
					"cullFace": [1029]
				}
			}
		},
		"technique_mat24": {
			"program": "program_mat24",
			"extras": {"gvrss" : "https://vr.google.com/shaders/w/gvrss/glass.json"},
			"parameters": {
				"position": {
					"type": 35665,
					"semantic": "POSITION"
				},
				"normal": {
					"type": 35665,
					"semantic": "NORMAL"
				},
				"color": {
					"type": 35666,
					"semantic": "COLOR"
				},
				"modelViewMatrix": {
					"type": 35676,
					"semantic": "MODELVIEW"
				},
				"projectionMatrix": {
					"type": 35676,
					"semantic": "PROJECTION"
				},
				"normalMatrix": {
					"type": 35675,
					"semantic": "MODELVIEWINVERSETRANSPOSE"
				},
				"color": {
					"type": 35666
				},
				"roughness": {
					"type": 5126
				},
				"metallic": {
					"type": 5126
				},
				"light0Pos": {
					"type": 35666
				},
				"light0Color": {
					"type": 35666
				},
				"light1Pos": {
					"type": 35666
				},
				"light1Color": {
					"type": 35666
				}				
			},
			"attributes": {
				"a_position": "position",
				"a_normal": "normal",
				"a_color": "color"				
			},
			"uniforms": {
				"u_modelViewMatrix": "modelViewMatrix",
				"u_projectionMatrix": "projectionMatrix",
				"u_normalMatrix": "normalMatrix",
				"u_color": "color",
				"u_roughness": "roughness",
				"u_metallic": "metallic",
				"u_light0Pos": "light0Pos",
				"u_light0Color": "light0Color",
				"u_light1Pos": "light1Pos",
				"u_light1Color": "light1Color"				
			},
			"states": {
				"enable": [
					2929,
					3042
				],
				"functions": {
					"blendFuncSeparate": [775, 774, 773, 772],
					"depthMask": [true]
				}
			}
		},
		"technique_mat23": {
			"program": "program_mat23",
			"extras": {"gvrss" : "https://vr.google.com/shaders/w/gvrss/paper.json"},
			"parameters": {
				"position": {
					"type": 35665,
					"semantic": "POSITION"
				},
				"normal": {
					"type": 35665,
					"semantic": "NORMAL"
				},
				"color": {
					"type": 35666,
					"semantic": "COLOR"
				},
				"modelViewMatrix": {
					"type": 35676,
					"semantic": "MODELVIEW"
				},
				"projectionMatrix": {
					"type": 35676,
					"semantic": "PROJECTION"
				},
				"normalMatrix": {
					"type": 35675,
					"semantic": "MODELVIEWINVERSETRANSPOSE"
				},
				"color": {
					"type": 35666
				},
				"roughness": {
					"type": 5126
				},
				"metallic": {
					"type": 5126
				},
				"light0Pos": {
					"type": 35666
				},
				"light0Color": {
					"type": 35666
				},
				"light1Pos": {
					"type": 35666
				},
				"light1Color": {
					"type": 35666
				}				
			},
			"attributes": {
				"a_position": "position",
				"a_normal": "normal",
				"a_color": "color"				
			},
			"uniforms": {
				"u_modelViewMatrix": "modelViewMatrix",
				"u_projectionMatrix": "projectionMatrix",
				"u_normalMatrix": "normalMatrix",
				"u_color": "color",
				"u_roughness": "roughness",
				"u_metallic": "metallic",
				"u_light0Pos": "light0Pos",
				"u_light0Color": "light0Color",
				"u_light1Pos": "light1Pos",
				"u_light1Color": "light1Color"				
			},
			"states": {
				"enable": [
					2929,
					2884
				],
				"functions": {
					"cullFace": [1029]
				}
			}
		}
	},
	"samplers": {
		"sampler_LINEAR_LINEAR_REPEAT": {
			"magFilter": 9729,
			"minFilter": 9987,
			"wrapS": 10497,
			"wrapT": 10497
		}
	},
	"textures": {
		"texture_mat25_gem": {
			"format": 6408,
			"internalFormat": 6408,
			"sampler": "sampler_LINEAR_LINEAR_REPEAT",
			"source": "image_mat25_gem",
			"target": 3553,
			"type": 5121
		}
	},
	"images": {
		"image_mat25_gem": {
			"uri": "https://vr.google.com/shaders/w/GemRefractions.png"
		}
	},
	"materials": {
		"material_mat25": {
			"technique": "technique_mat25",
			"values": {
				"color": [1, 1, 1, 1],
				"roughness": 0.001,
				"metallic": 0,
				"gem": "texture_mat25_gem",
				"light0Pos": [-0.02, 4.11, -0.54, 0],
				"light0Color": [0.8, 0.8, 0.8, 0],
				"light1Pos": [0.02, -4.11, 0.54, 0],
				"light1Color": [0.64, 0.64, 0.64, 0]				
			},
			"name": "material_mat25"
		},
		"material_mat24": {
			"technique": "technique_mat24",
			"values": {
				"color": [0.8392157, 0.8392157, 0.8392157, 0.2509804],
				"roughness": 0,
				"metallic": 0,
				"light0Pos": [-0.02, 4.11, -0.54, 0],
				"light0Color": [0.8, 0.8, 0.8, 0],
				"light1Pos": [0.02, -4.11, 0.54, 0],
				"light1Color": [0.64, 0.64, 0.64, 0]				
			},
			"name": "material_mat24"
		},
		"material_mat23": {
			"technique": "technique_mat23",
			"values": {
				"color": [0.1019608, 0.1019608, 0.1019608, 1],
				"roughness": 0.72,
				"metallic": 0,
				"light0Pos": [-0.02, 4.11, -0.54, 0],
				"light0Color": [0.8, 0.8, 0.8, 0],
				"light1Pos": [0.02, -4.11, 0.54, 0],
				"light1Color": [0.64, 0.64, 0.64, 0]				
			},
			"name": "material_mat23"
		}
	},
	"nodes": {
		"node_MeshObject155391040-PolyGem25": {
			"name": "node_MeshObject155391040-PolyGem25",
			"meshes": [
				"mesh_m0-PolyGem25_-46228"
			],
			"matrix": [1, 0, 0, 0, 0, 1, 0, 0, 0, 0, 1, 0, 0, 0, 0, 1]
		},
		"node_MeshObject-481422336-PolyGlass24": {
			"name": "node_MeshObject-481422336-PolyGlass24",
			"meshes": [
				"mesh_m1-PolyGlass24_-51212"
			],
			"matrix": [1, 0, 0, 0, 0, 1, 0, 0, 0, 0, 1, 0, 0, 0, 0, 1]
		},
		"node_MeshObject559814912-PolyPaper23": {
			"name": "node_MeshObject559814912-PolyPaper23",
			"meshes": [
				"mesh_m2-PolyPaper23_-53410"
			],
			"matrix": [1, 0, 0, 0, 0, 1, 0, 0, 0, 0, 1, 0, 0, 0, 0, 1]
		}
	},
	"scene": "defaultScene",
	"scenes": {
		"defaultScene": {
			"nodes": [
				"node_MeshObject155391040-PolyGem25",
				"node_MeshObject-481422336-PolyGlass24",
				"node_MeshObject559814912-PolyPaper23"
			],
			"extras": {

			}
		}
	}
}